<svg xmlns="http://www.w3.org/2000/svg" xmlns:xlink="http://www.w3.org/1999/xlink" width="2000" zoomAndPan="magnify" viewBox="0 0 1500 1499.999933" height="2000" preserveAspectRatio="xMidYMid meet" version="1.0"><defs><g/><clipPath id="307bd353fa"><rect x="0" width="1500" y="0" height="1468"/></clipPath></defs><g transform="matrix(1, 0, 0, 1, 0, 32)"><g clip-path="url(#307bd353fa)"><g fill="#10515f" fill-opacity="1"><g transform="translate(-32.503717, 1219.52838)"><g><path d="M 87.59375 0 L 87.59375 -1041.078125 L 224.046875 -1041.078125 L 463.265625 -534.015625 L 702.46875 -1041.078125 L 838.921875 -1041.078125 L 838.921875 0 L 692.375 0 L 692.375 -675.515625 L 490.21875 -247.640625 L 436.3125 -247.640625 L 234.15625 -675.515625 L 234.15625 0 Z M 87.59375 0 "/></g></g></g><g fill="#10515f" fill-opacity="1"><g transform="translate(894.022561, 1219.52838)"><g><path d="M 70.75 0 L 70.75 -121.296875 L 416.09375 -911.359375 L 70.75 -911.359375 L 70.75 -1041.078125 L 567.703125 -1041.078125 L 567.703125 -933.265625 L 217.3125 -129.71875 L 567.703125 -129.71875 L 567.703125 0 Z M 70.75 0 "/></g></g></g></g></g></svg>